<mxfile host="app.diagrams.net" modified="2023-10-07T13:38:19.957Z" agent="Mozilla/5.0 (Windows NT 10.0; Win64; x64) AppleWebKit/537.36 (KHTML, like Gecko) Chrome/117.0.0.0 Safari/537.36 Edg/117.0.2045.47" etag="zyOEpZaDkWv7xD5Oa0Xe" version="22.0.4" type="github">
  <diagram name="第 1 页" id="oXkT1sbdFF6o7U7stJVh">
    <mxGraphModel dx="636" dy="595" grid="0" gridSize="10" guides="1" tooltips="1" connect="1" arrows="1" fold="1" page="1" pageScale="1" pageWidth="827" pageHeight="1169" background="#ffffff" math="0" shadow="0">
      <root>
        <mxCell id="0" />
        <mxCell id="1" parent="0" />
        <mxCell id="yUDbLgGWElqg8JDm7MoN-1" value="return address" style="rounded=1;whiteSpace=wrap;html=1;fillColor=#99FFFF;strokeColor=#82b366;" parent="1" vertex="1">
          <mxGeometry x="252" y="100" width="240" height="50" as="geometry" />
        </mxCell>
        <mxCell id="yUDbLgGWElqg8JDm7MoN-2" value="arg2" style="rounded=1;whiteSpace=wrap;html=1;fillColor=#99FFFF;strokeColor=#82b366;" parent="1" vertex="1">
          <mxGeometry x="251" y="350" width="240" height="50" as="geometry" />
        </mxCell>
        <mxCell id="yUDbLgGWElqg8JDm7MoN-3" value="argn" style="rounded=1;whiteSpace=wrap;html=1;fillColor=#99FFFF;strokeColor=#82b366;" parent="1" vertex="1">
          <mxGeometry x="251" y="250" width="240" height="50" as="geometry" />
        </mxCell>
        <mxCell id="yUDbLgGWElqg8JDm7MoN-4" value="Caller&#39;s ebp" style="rounded=1;whiteSpace=wrap;html=1;fillColor=#99FFFF;strokeColor=#82b366;" parent="1" vertex="1">
          <mxGeometry x="252" y="150" width="240" height="50" as="geometry" />
        </mxCell>
        <mxCell id="yUDbLgGWElqg8JDm7MoN-5" value="arg1" style="rounded=1;whiteSpace=wrap;html=1;fillColor=#99FFFF;strokeColor=#82b366;" parent="1" vertex="1">
          <mxGeometry x="251" y="400" width="240" height="50" as="geometry" />
        </mxCell>
        <mxCell id="yUDbLgGWElqg8JDm7MoN-6" value="return address" style="rounded=1;whiteSpace=wrap;html=1;fillColor=#99FFFF;strokeColor=#FF3333;" parent="1" vertex="1">
          <mxGeometry x="251" y="450" width="240" height="50" as="geometry" />
        </mxCell>
        <mxCell id="yUDbLgGWElqg8JDm7MoN-7" value="Caller&#39;s ebp" style="rounded=1;whiteSpace=wrap;html=1;fillColor=#99FFFF;strokeColor=#FF3333;shadow=0;" parent="1" vertex="1">
          <mxGeometry x="251" y="500" width="240" height="50" as="geometry" />
        </mxCell>
        <mxCell id="yUDbLgGWElqg8JDm7MoN-8" value="高地址" style="text;strokeColor=none;align=center;fillColor=none;html=1;verticalAlign=middle;whiteSpace=wrap;rounded=0;" parent="1" vertex="1">
          <mxGeometry x="180" y="100" width="60" height="30" as="geometry" />
        </mxCell>
        <mxCell id="yUDbLgGWElqg8JDm7MoN-9" value="低地址" style="text;strokeColor=none;align=center;fillColor=none;html=1;verticalAlign=middle;whiteSpace=wrap;rounded=0;" parent="1" vertex="1">
          <mxGeometry x="155" y="553" width="60" height="30" as="geometry" />
        </mxCell>
        <mxCell id="yUDbLgGWElqg8JDm7MoN-11" value="" style="endArrow=classic;html=1;rounded=0;" parent="1" edge="1">
          <mxGeometry relative="1" as="geometry">
            <mxPoint x="563" y="515" as="sourcePoint" />
            <mxPoint x="500" y="514.5" as="targetPoint" />
          </mxGeometry>
        </mxCell>
        <mxCell id="yUDbLgGWElqg8JDm7MoN-13" value="ebp" style="text;strokeColor=none;align=center;fillColor=none;html=1;verticalAlign=middle;whiteSpace=wrap;rounded=0;" parent="1" vertex="1">
          <mxGeometry x="566" y="500" width="60" height="30" as="geometry" />
        </mxCell>
        <mxCell id="yUDbLgGWElqg8JDm7MoN-15" value="" style="endArrow=classic;html=1;rounded=0;" parent="1" edge="1">
          <mxGeometry relative="1" as="geometry">
            <mxPoint x="563" y="535" as="sourcePoint" />
            <mxPoint x="500" y="534.5" as="targetPoint" />
          </mxGeometry>
        </mxCell>
        <mxCell id="yUDbLgGWElqg8JDm7MoN-16" value="esp" style="text;strokeColor=none;align=center;fillColor=none;html=1;verticalAlign=middle;whiteSpace=wrap;rounded=0;" parent="1" vertex="1">
          <mxGeometry x="566" y="520" width="60" height="30" as="geometry" />
        </mxCell>
        <mxCell id="yUDbLgGWElqg8JDm7MoN-17" value="stack top" style="text;strokeColor=none;align=center;fillColor=none;html=1;verticalAlign=middle;whiteSpace=wrap;rounded=0;" parent="1" vertex="1">
          <mxGeometry x="278" y="565" width="60" height="30" as="geometry" />
        </mxCell>
        <mxCell id="yUDbLgGWElqg8JDm7MoN-18" value="" style="endArrow=classic;html=1;rounded=0;" parent="1" edge="1">
          <mxGeometry relative="1" as="geometry">
            <mxPoint x="370.5" y="557" as="sourcePoint" />
            <mxPoint x="370.5" y="619" as="targetPoint" />
          </mxGeometry>
        </mxCell>
        <mxCell id="vwEn_MPxWtpngwHH9cYK-1" value="&lt;span style=&quot;font-size: 18px;&quot;&gt;&lt;b&gt;将调用函数的基地址(ebp)压入栈内，并将当前栈定地址传到ebp寄存器内&lt;/b&gt;&lt;/span&gt;" style="text;strokeColor=none;align=center;fillColor=none;html=1;verticalAlign=middle;whiteSpace=wrap;rounded=0;" vertex="1" parent="1">
          <mxGeometry x="189.5" y="36" width="365" height="51" as="geometry" />
        </mxCell>
        <mxCell id="vwEn_MPxWtpngwHH9cYK-2" value="..." style="rounded=1;whiteSpace=wrap;html=1;fillColor=#99FFFF;strokeColor=#82b366;" vertex="1" parent="1">
          <mxGeometry x="251" y="300" width="240" height="50" as="geometry" />
        </mxCell>
        <mxCell id="vwEn_MPxWtpngwHH9cYK-3" value="Callee&#39;s func state" style="text;strokeColor=none;align=center;fillColor=none;html=1;verticalAlign=middle;whiteSpace=wrap;rounded=0;" vertex="1" parent="1">
          <mxGeometry x="120" y="460" width="110" height="30" as="geometry" />
        </mxCell>
        <mxCell id="vwEn_MPxWtpngwHH9cYK-4" value="Caller&#39;s func state" style="text;strokeColor=none;align=center;fillColor=none;html=1;verticalAlign=middle;whiteSpace=wrap;rounded=0;" vertex="1" parent="1">
          <mxGeometry x="117" y="260" width="110" height="30" as="geometry" />
        </mxCell>
        <mxCell id="vwEn_MPxWtpngwHH9cYK-5" value="..." style="rounded=1;whiteSpace=wrap;html=1;fillColor=#99FFFF;strokeColor=#82b366;" vertex="1" parent="1">
          <mxGeometry x="251.5" y="200" width="240" height="50" as="geometry" />
        </mxCell>
        <mxCell id="vwEn_MPxWtpngwHH9cYK-6" value="间接调用当前函数的函数的栈帧的基址指针" style="text;strokeColor=none;align=center;fillColor=none;html=1;verticalAlign=middle;whiteSpace=wrap;rounded=0;" vertex="1" parent="1">
          <mxGeometry x="503" y="146.5" width="126" height="57" as="geometry" />
        </mxCell>
      </root>
    </mxGraphModel>
  </diagram>
</mxfile>
